PathFileType  4	(X/Y/Z) C:\Users\antoi\Documents\MyRepositories\mobilecap\ResultsAnalysis
DataRate	CameraRate	NumFrames	NumMarkers	Units	OrigDataRate	OrigDataStartFrame	OrigNumFrames
100.0	100.0	4	51	mm	100.0	17	135
Frame#	Time	r_knee			r_shank_antsup			r_ankle			r_calc			r_5meta			r_toe			L_knee			L_shank_antsup			L_ankle			L_calc			L_5meta			L_toe			r_sh2			r_sh3			r_sh4			L_sh2			L_sh3			r_thigh1			r_thigh2			r_thigh3			r_thigh4			r_thigh5			L_thigh1			L_thigh2			L_thigh3			L_thigh4			r.ASIS			r.PSIS			L.ASIS			L.PSIS			C7			R_Shoulder			L_Shoulder			R_Sternum			L_Sternum			R_humerus			R_elbow_med			R_elbow_lat			R_forearm			R_wrist_radius			R_wrist_ulna			L_humerus			L_elbow_med			L_elbow_lat			L_forearm			L_wrist_radius			L_wrist_ulna			R_HJC			L_HJC			R_HJC_reg			L_HJC_reg			
		X1	Y1	Z1	X2	Y2	Z2	X3	Y3	Z3	X4	Y4	Z4	X5	Y5	Z5	X6	Y6	Z6	X7	Y7	Z7	X8	Y8	Z8	X9	Y9	Z9	X10	Y10	Z10	X11	Y11	Z11	X12	Y12	Z12	X13	Y13	Z13	X14	Y14	Z14	X15	Y15	Z15	X16	Y16	Z16	X17	Y17	Z17	X18	Y18	Z18	X19	Y19	Z19	X20	Y20	Z20	X21	Y21	Z21	X22	Y22	Z22	X23	Y23	Z23	X24	Y24	Z24	X25	Y25	Z25	X26	Y26	Z26	X27	Y27	Z27	X28	Y28	Z28	X29	Y29	Z29	X30	Y30	Z30	X31	Y31	Z31	X32	Y32	Z32	X33	Y33	Z33	X34	Y34	Z34	X35	Y35	Z35	X36	Y36	Z36	X37	Y37	Z37	X38	Y38	Z38	X39	Y39	Z39	X40	Y40	Z40	X41	Y41	Z41	X42	Y42	Z42	X43	Y43	Z43	X44	Y44	Z44	X45	Y45	Z45	X46	Y46	Z46	X47	Y47	Z47	X48	Y48	Z48	X49	Y49	Z49	X50	Y50	Z50	X51	Y51	Z51	

17	0.16000000	234.76772	490.69489	-36.85832	277.74163	423.48178	-57.71244	208.78337	94.09255	-102.15040	145.95532	67.99212	-150.04935	305.83670	43.66401	-57.10878	362.86206	71.41130	-104.59352	110.07839	468.81294	-322.88326	70.44494	381.24739	-327.40605	-206.49342	242.11773	-277.40593	-255.67352	288.02001	-221.49893	-229.78545	114.77348	-301.85516	-172.98013	92.02519	-261.21312	256.02407	308.49124	-47.72552	198.44323	431.44512	-31.30572	181.25248	320.71668	-43.45040	24.68032	457.27822	-317.93772	-74.05898	385.52520	-313.61311	219.63615	812.68958	14.66718	244.81692	701.42284	2.75423	193.72304	667.25037	29.30251	110.97852	786.23979	33.51014	136.19300	672.50114	17.34089	126.65039	732.57036	-354.30427	145.79347	597.16599	-341.26743	29.07466	720.07015	-294.98389	51.32318	582.29725	-290.83802	206.67401	961.53864	-34.80427	10.36859	996.67307	-97.38172	188.28167	930.19385	-283.83276	-5.09068	992.29482	-197.21893	-10.78899	1392.70595	-168.74721	99.99692	1369.23135	5.67940	63.65273	1365.45257	-350.44983	132.33740	1375.10520	-153.39524	133.49388	1375.69270	-197.27253	113.61352	1233.70605	69.53890	67.79104	1019.09981	26.35587	78.59404	1037.24972	95.75703	161.28983	926.08930	123.03906	210.48627	799.22793	138.97771	180.96326	790.13951	155.13356	100.62340	1256.35511	-412.23855	126.25590	1016.43359	-365.94706	136.85779	1046.86945	-439.50493	249.13692	1015.92635	-430.11150	383.15878	933.42937	-423.51889	366.85232	914.48829	-448.20682	127.00989	881.50288	-43.50943	107.92525	861.97419	-248.16184	137.82003	877.38801	-55.56766	112.42742	870.19517	-219.55380	
18	0.17000000	240.16474	490.38498	-36.16156	282.57947	422.62099	-57.29501	209.10255	94.22978	-102.22219	145.93767	68.08299	-150.01527	305.87942	43.46821	-57.19014	363.08928	71.29182	-104.42785	133.42728	470.65632	-324.94344	94.68510	383.11568	-328.83664	-183.80257	247.88742	-278.38820	-233.44002	292.65686	-221.81923	-206.45909	121.40674	-305.42986	-150.02670	97.94566	-264.68415	259.45908	307.87164	-47.25219	203.57660	431.46428	-30.31569	184.89466	320.97857	-42.50256	49.66293	459.68031	-320.18457	-49.80426	388.96265	-315.71801	229.33569	812.51450	16.08781	252.89921	701.00573	4.14050	201.23298	667.52611	30.25167	120.13255	787.71407	34.31442	143.75672	673.60624	17.91965	141.06926	734.27277	-354.68120	164.30931	599.42857	-342.82074	44.91554	718.67641	-293.80317	71.17077	581.91134	-290.65690	217.68538	962.81501	-33.76036	21.33522	997.63780	-96.92463	199.48117	930.73221	-282.95947	5.91304	992.74332	-196.80030	0.53729	1393.84666	-166.94586	113.11454	1370.11049	6.38461	73.16086	1366.12521	-349.48425	143.81016	1375.99333	-152.95684	144.52962	1376.57650	-196.90682	129.00048	1234.67024	69.84535	84.13751	1019.57314	27.67489	96.48285	1037.90278	96.65779	180.62724	927.54164	122.08018	231.77423	801.35924	136.72229	202.51299	791.76351	153.66309	108.15806	1256.12864	-411.28702	130.46215	1016.00930	-363.99592	141.15023	1045.90382	-437.62622	252.69596	1011.79541	-429.40036	384.18370	925.32506	-423.77759	367.04924	906.64805	-448.06617	138.02384	882.69411	-42.49137	119.22512	862.48566	-247.10784	148.86167	878.76790	-54.19641	123.51920	870.72367	-218.31808	
19	0.18000000	245.28575	490.09699	-35.61599	287.02887	421.83681	-57.04523	209.37972	94.37802	-102.29393	145.96144	68.16155	-150.02382	305.95140	43.43167	-57.11435	363.32952	71.19576	-104.26071	156.63199	473.13982	-326.67295	119.03919	385.42316	-330.07989	-160.11313	252.51325	-279.17383	-210.71369	295.67872	-221.88373	-181.19065	126.84239	-309.07204	-124.91916	103.08863	-268.19383	262.61563	307.32680	-46.90463	208.32970	431.49450	-29.50407	188.29604	321.23851	-41.71103	74.31758	462.27581	-322.17035	-25.45325	392.02865	-317.62072	238.82329	812.37546	17.21952	260.76512	700.61974	5.23898	208.54520	667.85771	31.00331	129.21428	789.12340	35.04749	151.18532	674.72091	18.45054	155.47434	736.32418	-354.89228	182.79119	602.19568	-344.09296	60.72637	717.72440	-292.62044	90.99688	582.03738	-290.28940	228.51612	964.09436	-32.82154	32.18038	998.74212	-96.38759	210.64872	931.48756	-282.19808	16.85044	993.46545	-196.30134	11.77546	1395.13034	-165.23488	126.09028	1371.02600	6.99434	82.59274	1366.91269	-348.56795	155.15711	1376.92285	-152.58142	155.52959	1377.53142	-196.59486	144.36948	1235.70421	69.96138	100.43938	1020.09892	28.90969	114.45067	1038.65700	97.41620	200.07051	929.14008	120.91620	253.07400	803.61603	134.15610	224.25071	793.58679	151.97933	115.58809	1255.99714	-410.31163	134.51007	1015.77293	-361.75966	145.18350	1045.03870	-435.50517	255.81197	1007.58086	-428.63375	384.52305	916.94666	-424.27837	366.41953	898.55474	-447.97172	148.90187	883.91662	-41.58186	130.36846	863.25126	-246.18085	159.72015	880.14655	-53.06594	134.51813	871.47084	-217.32462	
20	0.19000000	250.09652	489.84162	-35.24901	291.03207	421.11835	-56.89220	209.60915	94.53165	-102.38431	146.00518	68.24605	-150.06829	306.03363	43.54790	-56.87597	363.54978	71.10492	-104.11456	179.64735	476.15927	-328.05567	143.42993	388.11777	-331.18851	-135.49447	255.81512	-279.87542	-187.40636	297.15064	-221.88152	-154.39053	130.91261	-312.61796	-98.09804	107.20076	-271.59717	265.38723	306.85582	-46.67380	212.58089	431.56006	-28.97695	191.32839	321.52496	-41.20405	98.55974	464.99330	-323.87945	-1.08576	394.63339	-319.27163	248.16803	812.27452	18.02731	268.49651	700.25808	6.01669	215.69733	668.25027	31.50794	138.27669	790.48704	35.70984	158.55759	675.84964	18.90586	169.96349	738.70778	-354.92342	201.29640	605.41625	-345.04986	76.52115	717.18311	-291.50775	110.77310	582.59883	-289.88780	239.22305	965.36561	-31.94802	42.94672	999.98235	-95.74305	221.82338	932.58170	-281.49672	27.74368	994.49101	-195.69325	22.94299	1396.56556	-163.62981	138.91591	1372.01710	7.50874	91.97171	1367.83666	-347.69872	166.39337	1377.92327	-152.26894	166.50291	1378.58886	-196.33704	159.66544	1236.84765	69.88676	116.68546	1020.72529	30.01005	132.43451	1039.53366	98.00131	219.56396	930.92894	119.52681	274.28643	806.03070	131.24799	246.10223	795.65520	150.06333	122.92051	1255.99579	-409.31053	138.43109	1015.77329	-359.21307	148.96593	1044.30907	-433.13079	258.47579	1003.33000	-427.80361	384.14717	908.35062	-425.01951	364.93291	890.27734	-447.88462	159.69486	885.15809	-40.78380	141.41976	864.35056	-245.39401	170.46857	881.54713	-52.15000	145.46613	872.51581	-216.52832	
